<?xml version="1.0" encoding="UTF-8"?>
<!DOCTYPE svg PUBLIC "-//W3C//DTD SVG 1.1//EN" "http://www.w3.org/Graphics/SVG/1.1/DTD/svg11.dtd">
<!-- Creator: CorelDRAW X6 -->
<svg xmlns="http://www.w3.org/2000/svg" xml:space="preserve" width="28px" height="36px" version="1.1" style="shape-rendering:geometricPrecision; text-rendering:geometricPrecision; image-rendering:optimizeQuality; fill-rule:evenodd; clip-rule:evenodd"
viewBox="0 0 10044 13219"
 xmlns:xlink="http://www.w3.org/1999/xlink">
 <defs>
  <style type="text/css">
   <![CDATA[
    .fil0 {fill:#3FC9A4}
    .fil1 {fill:#4A6ED9}
   ]]>
  </style>
 </defs>
 <g id="Слой_x0020_1">
  <metadata id="CorelCorpID_0Corel-Layer"/>
  <g id="_621328704">
   <g>
    <g>
     <path id="SVGCleanerId_1_1_" class="fil0" d="M4112 1991c-545,106 -1071,-249 -1177,-794 -105,-545 249,-1073 794,-1178 545,-106 1071,249 1177,796 106,545 -249,1070 -794,1176zm-315 -1621c-351,69 -579,405 -510,757 68,352 404,579 756,511 352,-69 579,-405 511,-757 -68,-352 -405,-579 -757,-511z"/>
    </g>
    <path class="fil0" d="M1915 9891c-212,41 -422,-10 -596,-158 -263,-222 -320,-614 -143,-922l996 -1746 23 -827 25 -2324c-91,90 -163,195 -216,297l-391 808c-133,263 -456,381 -730,287 -137,-46 -250,-152 -315,-304 -66,-151 -80,-313 -19,-472l428 -1180c40,-80 78,-162 160,-214l863 -733c373,-329 937,-438 1408,-274l960 327 714 666 899 -448c250,-121 571,-74 757,127 119,141 173,331 137,521 -36,191 -153,342 -318,427l-1684 839 -479 -400 -17 660 57 8c678,106 1160,708 1127,1389l4 1241c-5,349 -242,632 -577,697 -54,10 -105,20 -162,12 -388,-16 -688,-342 -689,-724l-19 -946c8,-57 -24,-124 -70,-170 -45,-47 -105,-71 -175,-58 -109,2 -198,111 -213,225l-92 931 -1194 2074c-89,201 -265,326 -459,364zm672 -6618l-29 2966 -41 921 -1035 1827c-96,166 -58,359 74,479 170,131 439,98 548,-88l1145 -2012 71 -855c34,-299 263,-527 532,-560 162,-12 320,47 431,154 110,106 194,254 190,420l16 929c2,200 163,370 345,373 204,16 370,-164 369,-364l-3 -1242c27,-517 -332,-958 -843,-1042l-359 -59 42 -1762 827 772 1466 -724c67,-32 127,-97 132,-170 21,-77 -13,-162 -63,-225 -71,-78 -204,-106 -321,-47l-1107 559 -804 -758 -877 -286c-351,-116 -775,-34 -1057,205l-863 733c-15,22 -47,45 -43,63l-429 1180c-25,61 -11,131 3,201 28,49 73,94 112,106 115,33 235,-10 290,-112l391 -808c146,-284 377,-510 642,-653l248 -121z"/>
   </g>
   <g>
    <path class="fil1" d="M10044 4071l-1595 498 367 367 -1744 1399c-51,41 -81,103 -81,168l0 1949 -3279 0c-119,0 -216,97 -216,217l0 1949 -3279 0c-120,0 -217,97 -217,216 0,120 97,217 217,217l3495 0c120,0 217,-97 217,-217l0 -1949 3279 0c119,0 216,-97 216,-216l0 -2062 1700 -1363 422 421 498 -1594z"/>
    <path class="fil1" d="M0 10834l0 2202c0,101 97,183 216,183 120,0 217,-82 217,-183l0 -2202 -433 0z"/>
   </g>
  </g>
 </g>
</svg>
